<svg width="124" height="125" viewBox="0 0 124 125" fill="none" xmlns="http://www.w3.org/2000/svg">
<path d="M30.1257 46.0354H34.8247V73.446H29.4209V51.7525L24.252 53.2013L22.9207 48.5807L30.1257 46.0354Z" fill="#EFFBFF"/>
<path d="M58.3977 55.0026C58.3977 57.1171 57.8495 58.9706 56.7531 60.563H56.7922L48.2558 73.446H42.0689L48.1775 64.518C45.332 64.4658 43.0152 63.5586 41.227 61.7965C39.4388 60.0344 38.5447 57.7698 38.5447 55.0026C38.5447 52.2093 39.4649 49.9251 41.3053 48.15C43.1457 46.3748 45.5278 45.4872 48.4516 45.4872C51.4015 45.4872 53.7967 46.3683 55.6371 48.1304C57.4775 49.8925 58.3977 52.1832 58.3977 55.0026ZM43.9093 55.0026C43.9093 56.3601 44.3466 57.4434 45.2211 58.2527C46.0956 59.062 47.1725 59.4666 48.4516 59.4666C49.783 59.4666 50.8794 59.062 51.7409 58.2527C52.6023 57.4434 53.0331 56.3601 53.0331 55.0026C53.0331 53.6451 52.6023 52.5683 51.7409 51.7721C50.8794 50.9759 49.783 50.5778 48.4516 50.5778C47.1725 50.5778 46.0956 50.9824 45.2211 51.7917C44.3466 52.6009 43.9093 53.6712 43.9093 55.0026Z" fill="#EFFBFF"/>
<path d="M80.052 55.0026C80.052 57.1171 79.5038 58.9706 78.4074 60.563H78.4466L69.9101 73.446H63.7232L69.8318 64.518C66.9864 64.4658 64.6695 63.5586 62.8813 61.7965C61.0931 60.0344 60.199 57.7698 60.199 55.0026C60.199 52.2093 61.1192 49.9251 62.9596 48.15C64.8 46.3748 67.1821 45.4872 70.1059 45.4872C73.0558 45.4872 75.451 46.3683 77.2914 48.1304C79.1318 49.8925 80.052 52.1832 80.052 55.0026ZM65.5636 55.0026C65.5636 56.3601 66.0009 57.4434 66.8754 58.2527C67.7499 59.062 68.8268 59.4666 70.1059 59.4666C71.4373 59.4666 72.5337 59.062 73.3952 58.2527C74.2567 57.4434 74.6874 56.3601 74.6874 55.0026C74.6874 53.6451 74.2567 52.5683 73.3952 51.7721C72.5337 50.9759 71.4373 50.5778 70.1059 50.5778C68.8268 50.5778 67.7499 50.9824 66.8754 51.7917C66.0009 52.6009 65.5636 53.6712 65.5636 55.0026Z" fill="#EFFBFF"/>
<path d="M101.706 55.0026C101.706 57.1171 101.158 58.9706 100.062 60.563H100.101L91.5645 73.446H85.3775L91.4861 64.518C88.6407 64.4658 86.3238 63.5586 84.5356 61.7965C82.7474 60.0344 81.8533 57.7698 81.8533 55.0026C81.8533 52.2093 82.7735 49.9251 84.6139 48.15C86.4543 46.3748 88.8365 45.4872 91.7602 45.4872C94.7101 45.4872 97.1053 46.3683 98.9457 48.1304C100.786 49.8925 101.706 52.1832 101.706 55.0026ZM87.2179 55.0026C87.2179 56.3601 87.6552 57.4434 88.5297 58.2527C89.4042 59.062 90.4811 59.4666 91.7602 59.4666C93.0916 59.4666 94.188 59.062 95.0495 58.2527C95.911 57.4434 96.3417 56.3601 96.3417 55.0026C96.3417 53.6451 95.911 52.5683 95.0495 51.7721C94.188 50.9759 93.0916 50.5778 91.7602 50.5778C90.4811 50.5778 89.4042 50.9824 88.5297 51.7917C87.6552 52.6009 87.2179 53.6712 87.2179 55.0026Z" fill="#EFFBFF"/>
<path d="M62.0002 6.84492C92.5891 6.84492 117.474 31.7298 117.474 62.3186C117.474 92.9074 92.5891 117.792 62.0002 117.792C31.4114 117.792 6.52656 92.9074 6.52656 62.3186C6.52656 31.7298 31.4114 6.84492 62.0002 6.84492ZM62.0002 0.318604C27.7567 0.318604 0.000244141 28.075 0.000244141 62.3186C0.000244141 96.5622 27.7567 124.319 62.0002 124.319C96.2438 124.319 124 96.5622 124 62.3186C124 28.075 96.2438 0.318604 62.0002 0.318604Z" fill="#EFFBFF"/>
</svg>
