<svg width="121" height="122" viewBox="0 0 121 122" fill="none" xmlns="http://www.w3.org/2000/svg">
<path d="M74.8808 7.18952L84.5546 19.1424L99.7692 21.5623L102.183 36.7629L104.081 38.2976L114.137 46.4488L108.628 60.8215L114.137 75.188L102.189 84.8611L99.7692 100.074L84.5546 102.494L74.8744 114.447L60.5005 108.939L46.133 114.441L37.9812 104.386L36.4464 102.488L21.2446 100.074L18.8245 84.8611L6.87068 75.188L12.3795 60.8215L6.87068 46.4551L18.8245 36.7757L21.2382 21.5687L36.4464 19.1552L46.133 7.19589L60.5005 12.7043L74.8808 7.18952ZM75.6959 0.318359C75.2438 0.318359 74.7852 0.401144 74.3585 0.566715L60.5005 5.88407L46.6552 0.573083C46.2094 0.401144 45.7509 0.318359 45.2987 0.318359C44.1842 0.318359 43.1015 0.81507 42.3628 1.71934L33.0328 13.2456L18.3851 15.5763C16.7738 15.831 15.5065 17.1046 15.2454 18.7158L12.9145 33.3624L1.40006 42.6852C0.132715 43.7105 -0.332191 45.4426 0.253719 46.971L5.56512 60.8152L0.253719 74.6658C-0.33856 76.1941 0.132715 77.9262 1.40006 78.9515L12.9208 88.2744L15.2517 102.921C15.5065 104.538 16.7738 105.812 18.3914 106.067L33.0392 108.398L42.3691 119.905C43.1015 120.815 44.1906 121.312 45.2987 121.312C45.7572 121.312 46.2158 121.229 46.6616 121.057L60.5005 115.759L74.3458 121.07C74.7852 121.236 75.2374 121.318 75.7023 121.318C76.8168 121.318 77.9122 120.828 78.6446 119.911L87.9682 108.404L102.616 106.073C104.234 105.818 105.507 104.545 105.762 102.927L108.093 88.2807L119.601 78.9579C120.881 77.9199 121.333 76.2005 120.747 74.6721L115.436 60.8279L120.747 46.9837C121.327 45.4554 120.875 43.7232 119.601 42.6916L108.093 33.3624L105.762 18.7158C105.507 17.0983 104.234 15.8374 102.616 15.5763L87.9682 13.2456L78.6446 1.71934C77.9122 0.808702 76.8104 0.318359 75.6959 0.318359Z" fill="#EFFBFF"/>
<path d="M36.5801 49.9703H25.8809V56.3129H36.2744V61.3565H25.8809V71.6728H20.6077V44.9268H36.5801V49.9703Z" fill="#EFFBFF"/>
<path d="M55.1127 71.6728L49.7249 62.3881H45.7127V71.6728H40.4395V44.9268H51.1387C53.6097 44.9268 55.7113 45.7929 57.4436 47.525C59.1758 49.2571 60.042 51.3458 60.042 53.7912C60.042 55.4469 59.5707 56.9816 58.6281 58.3953C57.6856 59.809 56.4373 60.8725 54.8834 61.5857L60.8062 71.6728H55.1127ZM45.7127 49.8557V57.7649H51.1387C52.1322 57.7649 52.9856 57.3764 53.6989 56.5995C54.4121 55.8226 54.7688 54.8865 54.7688 53.7912C54.7688 52.6959 54.4121 51.7661 53.6989 51.002C52.9856 50.2378 52.1322 49.8557 51.1387 49.8557H45.7127Z" fill="#EFFBFF"/>
<path d="M69.1745 66.6292H80.4469V71.6728H63.9013V44.9268H80.2558V49.9703H69.1745V55.6634H79.3006V60.6305H69.1745V66.6292Z" fill="#EFFBFF"/>
<path d="M89.4266 66.6292H100.699V71.6728H84.1534V44.9268H100.508V49.9703H89.4266V55.6634H99.5527V60.6305H89.4266V66.6292Z" fill="#EFFBFF"/>
</svg>
