<svg width="122" height="99" viewBox="0 0 122 99" fill="none" xmlns="http://www.w3.org/2000/svg">
<path d="M29.2737 0.318359C28.4703 0.318359 27.6733 0.788924 26.7286 1.7365C18.2771 10.2002 9.82554 18.6639 1.38045 27.1341C-0.464103 28.9841 -0.457676 30.3185 1.38688 32.175C4.2726 35.0822 7.17761 37.9636 10.0441 40.8836C10.5132 41.3607 10.976 41.9408 11.1945 42.5596C12.5506 46.4789 13.8681 50.4174 15.0893 54.3818C15.2564 54.9168 14.9736 55.8064 14.588 56.264C13.4889 57.5597 12.1521 58.6491 11.0467 59.9319C8.47587 62.9293 7.40898 66.3908 8.88077 70.1618C10.4168 74.081 13.3283 76.5821 17.6279 77.1881C17.9814 77.2396 18.3349 77.2976 18.6498 77.3492C20.0252 84.1241 23.4187 87.5985 28.4896 87.5985C30.4627 87.5985 32.6928 87.0699 35.1544 86.0063C35.3922 86.4575 35.63 86.9217 35.8806 87.3793C37.7895 90.8409 41.1765 93.2002 44.5764 93.2002C45.3926 93.2002 46.2088 93.0648 47.0058 92.7747C47.8477 92.4653 48.5804 92.3235 49.236 92.3235C50.8299 92.3235 51.9546 93.1808 53.0858 94.6376C53.3428 94.9728 53.677 95.25 53.9984 95.5272C56.1579 97.4159 58.6644 98.3184 61.1195 98.3184C64.8408 98.3184 68.4206 96.2298 70.3808 92.3428C70.5672 91.9754 70.7665 91.6209 70.9978 91.1954C72.9516 92.4073 74.944 93.1615 77.0328 93.1615C78.0547 93.1615 79.1023 92.981 80.1756 92.5813C83.3891 91.3953 85.42 88.9457 86.879 85.9741C89.1734 87.1151 91.3458 87.663 93.3124 87.663C98.3833 87.663 102.124 84.0016 103.287 77.3363C103.557 77.2848 103.763 77.2332 103.968 77.2138C108.506 76.7562 111.539 74.1906 113.14 70.0845C114.727 66.0105 113.268 62.4716 110.473 59.4033C109.508 58.3461 108.499 57.3147 107.426 56.3672C106.668 55.6968 106.591 55.0715 106.912 54.1433C108.204 50.4239 109.386 46.6722 110.691 42.9528C110.961 42.1858 111.443 41.4251 112.015 40.845C114.869 37.9055 117.786 35.037 120.666 32.1298C122.433 30.3507 122.446 28.9584 120.698 27.205C112.169 18.6575 103.647 10.11 95.1184 1.5689C94.2829 0.73091 93.5117 0.318359 92.7404 0.318359C91.9563 0.318359 91.1722 0.743802 90.3174 1.59469C87.5667 4.33428 84.8673 7.11899 82.0651 9.80701C81.6153 10.2389 80.7926 10.5032 80.1306 10.5032C80.092 10.5032 80.0599 10.5032 80.0278 10.5032C75.1561 10.2905 70.2909 9.93594 65.4192 9.71677C65.2585 9.71032 65.1043 9.70388 64.9436 9.70388C63.7546 9.70388 62.5527 9.88437 61.3702 9.88437C61.1324 9.88437 60.8946 9.87792 60.6568 9.85858C58.6001 9.71032 56.5499 9.63297 54.4997 9.63297C50.2964 9.63297 46.0996 9.94238 41.9092 10.5096C41.8385 10.5161 41.7678 10.5225 41.6907 10.5225C41.1122 10.5225 40.3924 10.2518 40.0004 9.87147C37.2432 7.22213 34.5695 4.47609 31.8638 1.76873C30.8997 0.801817 30.0835 0.318359 29.2737 0.318359ZM19.9802 50.9976C19.601 49.9791 19.209 49.2378 19.0483 48.4514C17.6279 41.4445 14.0288 35.817 8.4823 31.3885C7.90386 30.9244 7.37685 30.3958 6.47707 29.5772C14.1573 22.0481 21.6898 14.6609 29.3701 7.11899C31.6003 9.37512 33.9782 11.5088 36.0285 13.9196C37.4103 15.544 38.8885 16.4594 40.688 16.4594C41.3243 16.4594 41.9992 16.3434 42.7254 16.1048C43.1175 15.9759 43.5416 15.9695 44.2936 15.8535C43.8244 16.3885 43.5802 16.6914 43.3103 16.9686C38.1237 22.1577 32.9242 27.334 27.7376 32.5295C26.028 34.2442 25.9895 35.6688 27.6991 37.3318C29.1066 38.6984 30.5334 40.0714 32.0951 41.2511C34.4603 43.0431 36.9668 43.9971 39.4926 43.9971C41.4914 43.9971 43.5095 43.3976 45.4826 42.1471C48.7604 40.0714 51.7104 37.3834 54.519 34.6696C56.0872 33.1548 57.5718 32.3877 59.6991 32.3877C59.8148 32.3877 59.9369 32.3877 60.0526 32.3941C61.9293 32.465 63.806 32.4844 65.6827 32.4844C67.5272 32.4844 69.3718 32.465 71.2163 32.465C72.2704 32.465 73.3308 32.4715 74.3849 32.4908C75.1304 32.5037 76.0559 32.8711 76.5765 33.3933C86.4484 43.2236 96.2817 53.0926 106.109 62.968C108.358 65.2241 108.724 67.3513 107.285 69.3496C106.179 70.8838 104.849 71.6702 103.461 71.6702C102.342 71.6702 101.186 71.161 100.074 70.1231C97.972 68.17 95.9732 66.1008 93.9423 64.0703C90.7416 60.873 87.5667 57.6628 84.3596 54.4785C83.6398 53.7629 82.83 53.4084 82.0587 53.4084C81.3582 53.4084 80.6898 53.6985 80.137 54.2786C79.038 55.4389 79.1087 57.0762 80.4198 58.3977C85.6064 63.6577 90.8573 68.8661 96.0118 74.1584C98.3383 76.5499 98.0363 79.2573 95.4076 81.2942C94.5657 81.9453 93.6916 82.2805 92.8047 82.2805C91.6478 82.2805 90.4652 81.7132 89.2827 80.5465C84.3596 75.6926 79.4943 70.7806 74.6098 65.8945C74.2692 65.5593 73.9478 65.1983 73.5879 64.8825C72.9388 64.3088 72.2061 64.0187 71.4927 64.0187C70.7986 64.0187 70.1302 64.2959 69.5839 64.8438C68.4913 65.9525 68.4784 67.6092 69.6867 68.8468C72.2832 71.5155 74.9376 74.1262 77.5598 76.7691C78.421 77.6393 79.2951 78.4902 80.1178 79.3991C82.2065 81.7132 82.213 83.9758 80.1692 86.0321C79.1409 87.0699 78.0418 87.5985 76.9235 87.5985C75.8117 87.5985 74.6805 87.0764 73.5686 85.9999C70.278 82.8284 67.0838 79.5538 63.8446 76.3243C63.5039 75.9891 63.1826 75.6281 62.8162 75.3251C62.2378 74.8546 61.5758 74.6161 60.9396 74.6161C60.2583 74.6161 59.5963 74.8804 59.0564 75.4025C57.9831 76.4403 57.8932 78.1098 58.9793 79.2895C60.3804 80.8172 61.91 82.2225 63.3368 83.7308C63.986 84.4206 64.6351 85.1554 65.085 85.9805C66.1904 88.0175 65.8819 89.7579 64.2816 91.3566C63.3368 92.2977 62.3085 92.8327 61.2288 92.8327C60.5347 92.8327 59.8148 92.6136 59.0822 92.1366C57.3726 91.0278 55.9522 89.4614 54.4547 88.0497C54.2876 87.8886 54.3454 87.36 54.4483 87.0506C56.6592 80.6367 54.9046 76.1825 48.9082 73.0045C48.7282 72.9079 48.574 72.7725 48.4133 72.6693C52.2824 64.1089 48.966 57.7918 39.7626 56.1931C39.3191 51.2232 36.7676 47.6714 32.0052 46.1823C30.9833 45.86 30.0128 45.7118 29.0873 45.7118C25.5332 45.7182 22.6281 47.9357 19.9802 50.9976ZM81.7438 16.4336C82.9135 16.4336 83.8776 16.0404 84.8031 15.0606C87.3546 12.3726 90.0154 9.78767 92.5347 7.25436C100.074 14.8156 107.49 22.2609 115.049 29.8479C112.696 32.2072 110.158 34.6116 107.799 37.1771C106.828 38.2279 106.019 39.5493 105.511 40.8836C104.29 44.1002 103.287 47.4006 102.105 50.9396C101.526 50.3916 101.115 50.0242 100.723 49.631C93.6659 42.5532 86.5898 35.4883 79.565 28.3782C78.5239 27.3275 77.4248 26.8505 75.9595 26.8505C75.9402 26.8505 75.9209 26.8505 75.9016 26.8505C72.6881 26.8763 69.4682 26.8892 66.2547 26.8892C63.0476 26.8892 59.8405 26.8763 56.6335 26.8505C56.6142 26.8505 56.5949 26.8505 56.5756 26.8505C55.1038 26.8505 53.9984 27.3146 52.9829 28.3911C51.1191 30.3636 49.1717 32.2459 47.2243 34.1346C46.4981 34.8372 45.7075 35.4689 44.8913 36.062C42.8797 37.5252 41.1572 38.273 39.4991 38.273C37.4938 38.273 35.585 37.19 33.3613 34.9661C33.6312 34.6438 33.8818 34.2828 34.1903 33.9734C38.3936 29.7577 42.6161 25.5548 46.813 21.3326C50.2129 17.9162 54.5254 16.5496 59.1014 15.8277C61.9936 15.37 64.8793 15.1702 67.765 15.1702C72.0776 15.1702 76.3772 15.6149 80.6641 16.3305C81.0433 16.4014 81.4032 16.4336 81.7438 16.4336ZM18.5084 71.6637C17.4544 71.6637 16.4518 71.1803 15.462 70.2263C13.7267 68.5503 13.3604 66.8679 14.3951 64.9211C14.7615 64.2314 15.2692 63.5803 15.8155 63.0195C19.0226 59.7643 22.204 56.4832 25.5139 53.3311C26.5422 52.3512 27.924 51.7518 28.586 51.3328C28.6117 51.3328 28.6438 51.3328 28.6695 51.3328C32.455 51.3328 34.9294 55.0199 33.6505 57.766C33.2584 58.6104 32.6414 59.3968 31.9794 60.0672C28.8559 63.258 25.7003 66.4102 22.5253 69.5559C21.9662 70.1102 21.3363 70.6324 20.6551 71.0256C19.9224 71.451 19.209 71.6637 18.5084 71.6637ZM29.5629 82.2611C26.0345 82.2611 23.5922 78.5417 24.839 75.7828C25.0318 75.3509 25.2568 74.8932 25.5846 74.5645C29.3572 70.7484 33.0785 66.8743 36.9604 63.1807C37.8923 62.2911 38.8821 61.8721 39.859 61.8721C40.9965 61.8721 42.1341 62.4394 43.1753 63.4966C44.9941 65.3466 45.4055 67.448 43.6573 69.3432C39.8461 73.4751 35.7842 77.3814 31.7481 81.2942C31.1182 81.9066 30.0513 82.0678 29.6079 82.2611C29.595 82.2611 29.5757 82.2611 29.5629 82.2611ZM44.962 87.5727C44.9492 87.5727 44.9363 87.5727 44.9234 87.5727C42.7511 87.5469 40.2767 85.0459 40.2767 82.88C40.2767 80.3982 42.8282 77.8327 45.2898 77.8327C45.3026 77.8327 45.3091 77.8327 45.3219 77.8327C47.4814 77.852 49.9622 80.3595 49.9687 82.5319C49.9751 85.0201 47.43 87.5727 44.962 87.5727Z" fill="#EFFBFF"/>
</svg>
