<svg width="121" height="122" viewBox="0 0 121 122" fill="none" xmlns="http://www.w3.org/2000/svg">
<path d="M40.8091 77.4081V73.4724L49.9414 64.0726C51.9793 61.9328 52.9982 60.1497 52.9982 58.7232C52.9982 57.6787 52.6735 56.8381 52.0239 56.2013C51.3743 55.5644 50.54 55.246 49.5211 55.246C47.5087 55.246 46.0185 56.2904 45.0505 58.3793L40.618 55.7809C41.4587 53.9468 42.6687 52.5458 44.248 51.5778C45.8274 50.6098 47.5596 50.1258 49.4447 50.1258C51.8647 50.1258 53.9408 50.8836 55.673 52.3993C57.4052 53.915 58.2713 55.9593 58.2713 58.5321C58.2713 61.3087 56.8066 64.1618 53.8771 67.0913L48.6422 72.3261H58.6916V77.4081H40.8091Z" fill="#EFFBFF"/>
<path d="M81.1976 67.9701V72.861H78.3318V77.4081H73.0206V72.861H60.3729V67.9701L69.2759 50.6607H74.9311L66.0662 67.9701H73.0206V61.6271H78.3318V67.9701H81.1976Z" fill="#EFFBFF"/>
<path d="M106.487 64.442C106.487 66.6327 106.493 68.8235 106.487 71.0206C106.474 73.7654 104.519 75.8351 101.78 75.9943C101.519 76.007 101.43 76.0453 101.405 76.3382C101.112 80.2038 99.0992 82.7639 95.4629 84.0504C95.1572 84.1586 95.0617 84.3624 94.947 84.6044C92.7627 89.4826 89.5785 93.5839 85.3626 96.8764C82.0382 99.4683 78.3255 101.302 74.307 102.525C73.9376 102.633 73.7657 102.793 73.6574 103.175C72.4601 107.41 68.5563 110.301 64.2703 110.155C59.7233 109.995 56.0551 106.945 55.1062 102.538C53.8198 96.5579 58.6534 90.82 64.7544 91.0747C67.7921 91.2021 70.2376 92.4885 72.1162 94.8576C72.2755 95.0614 72.3837 95.2206 72.7149 95.1123C79.1024 92.9216 84.1271 89.0878 87.324 83.0378C87.5406 82.6302 87.5087 82.42 87.1648 82.1016C85.3944 80.4458 84.5092 78.3825 84.5092 75.9625C84.5028 68.2567 84.5028 60.5445 84.5092 52.8387C84.5156 48.3363 87.8908 44.7636 92.4888 44.3687C96.4882 44.0248 100.519 47.209 101.284 51.3294C101.36 51.737 101.392 52.1509 101.405 52.5585C101.411 52.7942 101.494 52.8451 101.723 52.8578C104.633 53.068 106.487 55.0677 106.487 57.9844C106.487 60.1306 106.487 62.2831 106.487 64.442Z" fill="#EFFBFF"/>
<path d="M36.4913 64.442C36.4913 68.2694 36.504 72.0905 36.4849 75.9179C36.4658 80.0128 33.7847 83.388 29.8872 84.2796C24.7989 85.445 19.8124 81.6495 19.5959 76.4274C19.5831 76.0835 19.4876 76.007 19.1501 75.9816C16.4753 75.816 14.5202 73.7399 14.5139 71.0588C14.5075 66.62 14.5075 62.1876 14.5139 57.7488C14.5202 55.0549 16.5136 52.9661 19.2138 52.8451C19.6723 52.826 19.5768 52.5776 19.5895 52.3293C19.7806 47.8523 23.9009 44.1013 28.3716 44.3433C32.9377 44.5916 36.4467 48.2726 36.4849 52.8578C36.4849 52.896 36.4849 52.9279 36.4849 52.9661C36.4977 56.7935 36.4977 60.6146 36.4913 64.442Z" fill="#EFFBFF"/>
<path d="M97.4243 40.6114C96.2717 40.2547 95.1827 39.9809 94.0555 39.8663C92.5652 39.7198 91.1132 39.879 89.6931 40.312C89.19 40.4649 89.0626 40.3248 88.9034 39.8599C85.3626 29.4348 78.2936 22.6524 67.6138 20.0159C52.5588 16.3031 37.2173 25.2635 32.7658 40.1274C32.6384 40.5604 32.5365 40.6814 32.0525 40.5158C29.7026 39.6943 27.308 39.6243 24.8944 40.2293C24.3404 40.3694 24.334 40.363 24.4741 39.7962C26.1617 32.9565 29.4606 27.0211 34.4598 22.0602C40.2296 16.3286 47.152 12.8005 55.1954 11.5777C74.5108 8.63552 92.7818 20.9648 97.2906 39.9363C97.3352 40.1274 97.367 40.3184 97.4243 40.6114Z" fill="#EFFBFF"/>
<path d="M60.5002 6.68678C90.349 6.68678 114.632 30.9696 114.632 60.8184C114.632 90.6672 90.349 114.95 60.5002 114.95C30.6515 114.95 6.36867 90.6672 6.36867 60.8184C6.36867 30.9696 30.6515 6.68678 60.5002 6.68678ZM60.5002 0.318359C27.0851 0.318359 0.000244141 27.4033 0.000244141 60.8184C0.000244141 94.2335 27.0851 121.318 60.5002 121.318C93.9154 121.318 121 94.2335 121 60.8184C121 27.4033 93.9154 0.318359 60.5002 0.318359Z" fill="#EFFBFF"/>
</svg>
