<svg width="108" height="123" viewBox="0 0 108 123" fill="none" xmlns="http://www.w3.org/2000/svg">
<path d="M54.0224 8.4671C55.5128 9.61011 57.0414 10.766 58.6018 11.8769C66.7605 17.6882 74.8046 22.1254 83.1799 25.426C88.8993 27.6799 94.2174 29.1376 99.4401 29.8824C100.16 29.9852 100.873 30.0687 101.58 30.1329C101.567 32.2134 101.542 34.3325 101.485 36.4002C101.37 40.452 101.192 44.0544 100.943 47.4128C100.325 55.8184 99.249 62.7278 97.5676 69.1557C95.1728 78.319 91.4788 85.9219 86.2816 92.3947C78.1929 102.476 68.3273 109.97 56.9649 114.664C56.0351 115.049 54.9714 115.377 53.8441 115.724C49.8826 114.645 45.7682 112.866 41.3098 110.31C35.0554 106.727 29.336 102.232 24.3172 96.9539C17.4323 89.717 12.681 81.1765 10.1971 71.5765C9.0188 67.0173 8.22904 62.8242 7.78321 58.753C7.3947 55.1827 7.10172 52.1968 6.92339 49.2172C6.71321 45.769 6.57309 42.0767 6.47756 37.5945C6.4266 35.1801 6.4075 32.7079 6.39476 30.2934C10.3627 29.8375 14.4452 28.9513 18.7316 27.6093C27.7629 24.7903 36.7623 20.3531 46.2586 14.0344C48.959 12.2557 51.5576 10.3871 54.0224 8.4671ZM53.9078 0.318359C53.8759 0.344045 53.7868 0.41468 53.6976 0.485316C50.2137 3.43915 46.5579 6.16182 42.762 8.68543C34.6733 14.0666 26.1515 18.5808 16.8591 21.4833C11.5346 23.1464 6.10178 24.1995 0.503398 24.238C0.0320893 24.2445 0.000244141 24.4628 0.000244141 24.8352C0.0384584 29.1376 0.0257203 33.4399 0.114887 37.7422C0.197684 41.7042 0.331434 45.6598 0.567089 49.6154C0.770898 52.9031 1.10209 56.1845 1.45875 59.4594C1.96191 64.1084 2.86631 68.6805 4.03822 73.2076C6.82785 83.9891 12.0823 93.3707 19.7188 101.404C25.1707 107.138 31.3168 111.973 38.1635 115.897C43.0104 118.671 48.0674 120.957 53.5129 122.267C53.6594 122.299 53.8123 122.318 53.9715 122.318C54.1498 122.318 54.3345 122.293 54.4937 122.241C56.1306 121.721 57.7993 121.259 59.3852 120.604C72.0914 115.351 82.6258 107.164 91.2367 96.4273C97.3255 88.8436 101.268 80.1812 103.726 70.7867C105.694 63.2737 106.72 55.6129 107.293 47.8816C107.573 44.1187 107.739 40.3493 107.854 36.58C107.968 32.6372 107.943 28.6945 108 24.7453C108.006 24.2509 107.86 24.1289 107.37 24.0968C105.019 23.9427 102.663 23.8463 100.332 23.5188C95.2238 22.7932 90.3005 21.3291 85.4982 19.4413C77.2121 16.1728 69.5247 11.7934 62.2767 6.62416C59.4552 4.62069 56.7356 2.45668 53.9078 0.318359Z" fill="#EFFBFF"/>
<path d="M46.1057 82.4993L26.3617 63.4535L30.7627 58.8108L46.0293 73.535L77.193 42.3464L81.6832 46.9055L46.1057 82.4993Z" fill="#EFFBFF"/>
</svg>
