<svg width="96" height="168" viewBox="0 0 96 168" fill="none" xmlns="http://www.w3.org/2000/svg">
<path d="M47.0227 164.892L44.2645 159.82L41.2511 164.744L47.0227 164.892ZM11.3085 123.404L11.7742 123.222L11.3085 123.404ZM9.42587 68.6946L8.94876 68.545L9.42587 68.6946ZM42.2036 24.8503L41.9252 24.4351L42.2036 24.8503ZM95.2102 11.1756L90.3874 8.00176L90.0502 13.7654L95.2102 11.1756ZM43.4571 162.124C42.7689 161.676 42.0882 161.219 41.4151 160.753L40.8452 161.574C41.5265 162.047 42.2155 162.509 42.9121 162.962L43.4571 162.124ZM30.7427 151.927C27.4406 148.69 24.4179 145.178 21.7076 141.431L20.8973 142.018C23.6407 145.81 26.7002 149.364 30.0426 152.641L30.7427 151.927ZM14.5676 129.565C13.5507 127.498 12.6183 125.382 11.7742 123.222L10.8428 123.586C11.6972 125.772 12.641 127.914 13.6702 130.006L14.5676 129.565ZM11.7742 123.222C10.9302 121.063 10.1808 118.875 9.5263 116.666L8.5675 116.95C9.22999 119.186 9.98851 121.4 10.8428 123.586L11.7742 123.222ZM6.72769 103.103C6.179 98.5114 6.01967 93.8812 6.25141 89.2625L5.25266 89.2124C5.0181 93.8874 5.17938 98.5741 5.73476 103.222L6.72769 103.103ZM8.11104 75.5391C8.61214 73.2904 9.20938 71.0567 9.90298 68.8441L8.94876 68.545C8.24672 70.7845 7.64219 73.0454 7.13498 75.3216L8.11104 75.5391ZM9.90298 68.8441C10.5966 66.6316 11.3813 64.4567 12.2537 62.3243L11.3281 61.9457C10.4452 64.1041 9.65081 66.3055 8.94876 68.545L9.90298 68.8441ZM18.5611 49.9952C21.0074 46.0708 23.7815 42.3601 26.8533 38.9033L26.1058 38.2391C22.9966 41.738 20.1887 45.494 17.7125 49.4662L18.5611 49.9952ZM36.8938 29.3651C38.6923 27.925 40.5562 26.5569 42.4821 25.2656L41.9252 24.4351C39.9759 25.7421 38.0892 27.1269 36.2688 28.5845L36.8938 29.3651ZM42.4821 25.2656C44.4079 23.9743 46.3814 22.7695 48.3964 21.6525L47.9116 20.7779C45.872 21.9085 43.8745 23.128 41.9252 24.4351L42.4821 25.2656ZM61.0328 15.9858C65.3971 14.4567 69.8833 13.2993 74.4426 12.5263L74.2755 11.5404C69.6605 12.3228 65.1197 13.4943 60.7021 15.042L61.0328 15.9858ZM88.2433 11.3728C89.0624 11.3737 89.8823 11.387 90.7026 11.4126L90.7338 10.413C89.9034 10.3872 89.0736 10.3738 88.2445 10.3728L88.2433 11.3728ZM47.0227 164.892L41.659 154.666L35.4852 164.424L47.0227 164.892ZM11.3085 123.404L12.2399 123.04L11.3085 123.404ZM9.42587 68.6946L8.47166 68.3954L9.42587 68.6946ZM42.2036 24.8503L41.6467 24.0198L42.2036 24.8503ZM95.2102 11.1756L85.4704 4.97326L84.9689 16.5094L95.2102 11.1756ZM31.0927 151.57C27.8107 148.352 24.8065 144.862 22.1127 141.138L20.4922 142.311C23.2521 146.126 26.33 149.701 29.6926 152.998L31.0927 151.57ZM15.0162 129.344C14.0056 127.29 13.0788 125.187 12.2399 123.04L10.3771 123.768C11.2366 125.967 12.1861 128.122 13.2216 130.227L15.0162 129.344ZM12.2399 123.04C11.401 120.894 10.6562 118.72 10.0057 116.524L8.0881 117.092C8.75459 119.342 9.51767 121.569 10.3771 123.768L12.2399 123.04ZM7.22416 103.044C6.67882 98.4801 6.52045 93.8781 6.75078 89.2876L4.75329 89.1874C4.51731 93.8905 4.67956 98.6054 5.23829 103.281L7.22416 103.044ZM8.59907 75.6479C9.09711 73.4128 9.69071 71.1928 10.3801 68.9937L8.47166 68.3954C7.76539 70.6484 7.15722 72.923 6.64694 75.2129L8.59907 75.6479ZM10.3801 68.9937C11.0694 66.7947 11.8494 64.633 12.7165 62.5136L10.8654 61.7564C9.97706 63.9278 9.17793 66.1425 8.47166 68.3954L10.3801 68.9937ZM18.9854 50.2597C21.4168 46.3593 24.174 42.6712 27.2271 39.2355L25.7321 37.907C22.6041 41.427 19.7793 45.2056 17.2882 49.2017L18.9854 50.2597ZM37.2064 29.7554C38.9938 28.3241 40.8464 26.9644 42.7605 25.6809L41.6467 24.0198C39.6857 25.3347 37.7876 26.7278 35.9563 28.1942L37.2064 29.7554ZM42.7605 25.6809C44.6747 24.3975 46.636 23.2 48.6388 22.0899L47.6693 20.3406C45.6173 21.478 43.6078 22.7049 41.6467 24.0198L42.7605 25.6809ZM61.1981 16.4577C65.5358 14.9378 69.9946 13.7876 74.5262 13.0193L74.1919 11.0474C69.5491 11.8346 64.9809 13.0131 60.5368 14.5702L61.1981 16.4577Z" fill="#005792"/>
</svg>
