<svg width="101" height="170" viewBox="0 0 101 170" fill="none" xmlns="http://www.w3.org/2000/svg">
<path d="M53.3727 165.834L55.9959 160.691L59.1384 165.534L53.3727 165.834ZM87.9779 123.417L87.5076 123.248L87.9779 123.417ZM88.4139 68.6769L88.8869 68.5147L88.4139 68.6769ZM54.4888 25.7143L54.7562 25.2918L54.4888 25.7143ZM1.13927 13.4453L5.87655 10.1451L6.36599 15.8978L1.13927 13.4453ZM56.864 162.973C57.5401 162.508 58.2085 162.033 58.8689 161.548L59.4604 162.354C58.7918 162.845 58.1153 163.326 57.431 163.797L56.864 162.973ZM69.3044 152.444C72.5198 149.12 75.4486 145.53 78.0589 141.713L78.8844 142.277C76.2422 146.141 73.2777 149.775 70.0231 153.139L69.3044 152.444ZM84.8828 129.662C85.8447 127.568 86.7209 125.429 87.5076 123.248L88.4482 123.587C87.652 125.795 86.7651 127.96 85.7915 130.08L84.8828 129.662ZM87.5076 123.248C88.2942 121.066 88.9855 118.86 89.5814 116.634L90.5474 116.893C89.9442 119.146 89.2445 121.379 88.4482 123.587L87.5076 123.248ZM92.0206 103.002C92.4477 98.3975 92.4846 93.7646 92.1309 89.1537L93.128 89.0773C93.486 93.7444 93.4487 98.4337 93.0163 103.095L92.0206 103.002ZM89.9092 75.4843C89.3488 73.2495 88.6928 71.0324 87.9409 68.839L88.8869 68.5147C89.6479 70.7349 90.312 72.9791 90.8792 75.2411L89.9092 75.4843ZM87.9409 68.839C87.1891 66.6456 86.3471 64.4922 85.4187 62.3836L86.334 61.9806C87.2737 64.1149 88.1259 66.2946 88.8869 68.5147L87.9409 68.839ZM78.7877 50.2255C76.2384 46.3671 73.3672 42.7311 70.2052 39.3566L70.9348 38.6729C74.1355 42.0884 77.0417 45.7688 79.622 49.6742L78.7877 50.2255ZM59.9161 30.0871C58.0802 28.6951 56.1807 27.3767 54.2214 26.1368L54.7562 25.2918C56.7394 26.5468 58.662 27.8813 60.5202 29.2903L59.9161 30.0871ZM54.2214 26.1368C52.2621 24.8968 50.2575 23.7445 48.2136 22.6813L48.6751 21.7941C50.744 22.8704 52.773 24.0367 54.7562 25.2918L54.2214 26.1368ZM35.4319 17.3505C31.0287 15.9372 26.5135 14.8989 21.9353 14.2466L22.0764 13.2566C26.7104 13.9168 31.2806 14.9678 35.7375 16.3983L35.4319 17.3505ZM8.10897 13.4583C7.29019 13.4809 6.47098 13.5158 5.65158 13.563L5.59401 12.5647C6.42339 12.5169 7.25261 12.4815 8.08137 12.4586L8.10897 13.4583ZM53.3727 165.834L58.4643 155.47L64.8938 165.061L53.3727 165.834ZM87.9779 123.417L87.0372 123.078L87.9779 123.417ZM88.4139 68.6769L89.3599 68.3526L88.4139 68.6769ZM54.4888 25.7143L55.0235 24.8693L54.4888 25.7143ZM1.13927 13.4453L10.7118 6.98769L11.518 18.5065L1.13927 13.4453ZM68.945 152.096C72.1409 148.793 75.0518 145.225 77.6462 141.431L79.2971 142.56C76.639 146.447 73.6567 150.102 70.3825 153.487L68.945 152.096ZM84.4285 129.453C85.3845 127.373 86.2553 125.246 87.0372 123.078L88.9186 123.757C88.1175 125.978 87.2253 128.156 86.2459 130.288L84.4285 129.453ZM87.0372 123.078C87.8191 120.91 88.5062 118.717 89.0984 116.505L91.0304 117.022C90.4236 119.289 89.7196 121.535 88.9186 123.757L87.0372 123.078ZM91.5227 102.956C91.9473 98.3794 91.9839 93.7748 91.6324 89.192L93.6265 89.039C93.9867 93.7342 93.9491 98.4518 93.5142 103.141L91.5227 102.956ZM89.4242 75.6059C88.8673 73.3848 88.2152 71.1812 87.4679 69.0011L89.3599 68.3526C90.1255 70.5861 90.7935 72.8438 91.3642 75.1195L89.4242 75.6059ZM87.4679 69.0011C86.7207 66.8211 85.8838 64.6808 84.9611 62.585L86.7916 61.7791C87.7369 63.9263 88.5943 66.1191 89.3599 68.3526L87.4679 69.0011ZM78.3705 50.5011C75.8368 46.6663 72.9831 43.0524 69.8403 39.6985L71.2997 38.331C74.5196 41.7671 77.4433 45.4697 80.0392 49.3986L78.3705 50.5011ZM59.614 30.4855C57.7893 29.102 55.9014 27.7917 53.954 26.5593L55.0235 24.8693C57.0187 26.1319 58.9529 27.4744 60.8223 28.8919L59.614 30.4855ZM53.954 26.5593C52.0067 25.3269 50.0143 24.1816 47.9829 23.1248L48.9059 21.3506C50.9872 22.4333 53.0284 23.6067 55.0235 24.8693L53.954 26.5593ZM35.2791 17.8266C30.9027 16.4219 26.4151 15.3899 21.8648 14.7416L22.1469 12.7616C26.8088 13.4258 31.4066 14.4831 35.8903 15.9222L35.2791 17.8266Z" fill="#005792"/>
</svg>
