<svg width="21" height="25" viewBox="0 0 21 25" fill="none" xmlns="http://www.w3.org/2000/svg">
<path d="M18.6562 11.4536C18.9844 11.4536 19.2891 11.5122 19.5703 11.6294C19.8516 11.7466 20.1016 11.9106 20.3203 12.1216C20.5391 12.3325 20.7031 12.5786 20.8125 12.8599C20.9219 13.1411 20.9844 13.4458 21 13.7739C21 14.0786 20.9414 14.3755 20.8242 14.6646C20.707 14.9536 20.5391 15.2075 20.3203 15.4263L11.918 23.8521L7.5 24.9536L8.60156 20.5356L17.0039 12.1216C17.2227 11.9028 17.4766 11.7388 17.7656 11.6294C18.0547 11.52 18.3516 11.4614 18.6562 11.4536ZM19.2539 14.3716C19.418 14.2075 19.5 14.0083 19.5 13.7739C19.5 13.5317 19.4219 13.3364 19.2656 13.188C19.1094 13.0396 18.9062 12.9614 18.6562 12.9536C18.5469 12.9536 18.4414 12.9692 18.3398 13.0005C18.2383 13.0317 18.1484 13.0903 18.0703 13.1763L9.96094 21.3091L9.5625 22.8911L11.1445 22.4927L19.2539 14.3716ZM4.5 11.4536H3V9.95361H4.5V11.4536ZM15 11.4536H6V9.95361H15V11.4536ZM3 14.4536H4.5V15.9536H3V14.4536ZM4.5 6.95361H3V5.45361H4.5V6.95361ZM15 6.95361H6V5.45361H15V6.95361ZM1.5 20.4536H6.69141L6.31641 21.9536H0V0.953613H18V9.66064C17.4766 9.73877 16.9766 9.91064 16.5 10.1763V2.45361H1.5V20.4536ZM6 14.4536H12.0234L10.5234 15.9536H6V14.4536Z" fill="#EFFBFF"/>
</svg>
