<svg width="15" height="25" viewBox="0 0 15 25" fill="none" xmlns="http://www.w3.org/2000/svg">
<path d="M7.5 0.953613C8.1875 0.953613 8.85156 1.04346 9.49219 1.22314C10.1328 1.40283 10.7305 1.65283 11.2852 1.97314C11.8398 2.29346 12.3438 2.68408 12.7969 3.14502C13.25 3.60596 13.6406 4.11377 13.9688 4.66846C14.2969 5.22314 14.5508 5.8208 14.7305 6.46143C14.9102 7.10205 15 7.76611 15 8.45361C15 8.99268 14.9375 9.50439 14.8125 9.98877C14.6875 10.4731 14.5 10.9614 14.25 11.4536L7.5 24.9536L0.75 11.4536C0.507812 10.9692 0.324219 10.4849 0.199219 10.0005C0.0742188 9.51611 0.0078125 9.00049 0 8.45361C0 7.76611 0.0898438 7.10205 0.269531 6.46143C0.449219 5.8208 0.699219 5.22314 1.01953 4.66846C1.33984 4.11377 1.73047 3.60986 2.19141 3.15674C2.65234 2.70361 3.16016 2.31299 3.71484 1.98486C4.26953 1.65674 4.86719 1.40283 5.50781 1.22314C6.14844 1.04346 6.8125 0.953613 7.5 0.953613ZM13.0781 10.8677V10.856L13.0898 10.8442C13.2852 10.4771 13.4336 10.0903 13.5352 9.68408C13.6367 9.27783 13.6875 8.86768 13.6875 8.45361C13.6875 7.60205 13.5273 6.80127 13.207 6.05127C12.8867 5.30127 12.4414 4.64502 11.8711 4.08252C11.3008 3.52002 10.6445 3.07861 9.90234 2.7583C9.16016 2.43799 8.35938 2.27393 7.5 2.26611C6.64844 2.26611 5.84766 2.42627 5.09766 2.74658C4.34766 3.06689 3.69141 3.51221 3.12891 4.08252C2.56641 4.65283 2.125 5.30908 1.80469 6.05127C1.48438 6.79346 1.32031 7.59424 1.3125 8.45361C1.3125 8.86768 1.36328 9.27783 1.46484 9.68408C1.56641 10.0903 1.71484 10.4771 1.91016 10.8442V10.856L1.92188 10.8677L7.5 22.0239L13.0781 10.8677ZM7.5 4.04736C8.10938 4.04736 8.67969 4.16064 9.21094 4.38721C9.74219 4.61377 10.2109 4.93018 10.6172 5.33643C11.0234 5.74268 11.3359 6.20752 11.5547 6.73096C11.7734 7.25439 11.8906 7.82861 11.9062 8.45361C11.9062 9.06299 11.793 9.6333 11.5664 10.1646C11.3398 10.6958 11.0234 11.1646 10.6172 11.5708C10.2109 11.9771 9.74609 12.2896 9.22266 12.5083C8.69922 12.7271 8.125 12.8442 7.5 12.8599C6.89062 12.8599 6.32031 12.7466 5.78906 12.52C5.25781 12.2935 4.78906 11.9771 4.38281 11.5708C3.97656 11.1646 3.66406 10.6997 3.44531 10.1763C3.22656 9.65283 3.10938 9.07861 3.09375 8.45361C3.09375 7.84424 3.20703 7.27393 3.43359 6.74268C3.66016 6.21143 3.97656 5.74268 4.38281 5.33643C4.78906 4.93018 5.25391 4.61768 5.77734 4.39893C6.30078 4.18018 6.875 4.06299 7.5 4.04736ZM7.5 11.5474C7.92969 11.5474 8.33203 11.4692 8.70703 11.313C9.08203 11.1567 9.41016 10.9341 9.69141 10.645C9.97266 10.356 10.1914 10.0278 10.3477 9.66064C10.5039 9.29346 10.5859 8.89111 10.5938 8.45361C10.5938 8.02393 10.5156 7.62158 10.3594 7.24658C10.2031 6.87158 9.98047 6.54346 9.69141 6.26221C9.40234 5.98096 9.07422 5.76221 8.70703 5.60596C8.33984 5.44971 7.9375 5.36768 7.5 5.35986C7.07031 5.35986 6.66797 5.43799 6.29297 5.59424C5.91797 5.75049 5.58984 5.97314 5.30859 6.26221C5.02734 6.55127 4.80859 6.87939 4.65234 7.24658C4.49609 7.61377 4.41406 8.01611 4.40625 8.45361C4.40625 8.8833 4.48438 9.28564 4.64062 9.66064C4.79688 10.0356 5.01953 10.3638 5.30859 10.645C5.59766 10.9263 5.92578 11.145 6.29297 11.3013C6.66016 11.4575 7.0625 11.5396 7.5 11.5474Z" fill="#EFFBFF"/>
</svg>
