<svg width="24" height="24" viewBox="0 0 24 24" fill="none" xmlns="http://www.w3.org/2000/svg">
<path d="M24 2.45361V23.4536H0V2.45361H4.5V0.953613H6V2.45361H18V0.953613H19.5V2.45361H24ZM1.5 3.95361V6.95361H22.5V3.95361H19.5V5.45361H18V3.95361H6V5.45361H4.5V3.95361H1.5ZM22.5 21.9536V8.45361H1.5V21.9536H22.5ZM16.5 11.4536V18.9536H15V13.2583C14.7891 13.3677 14.5469 13.4692 14.2734 13.563C14 13.6567 13.7422 13.7036 13.5 13.7036V12.2036C13.5938 12.2036 13.7148 12.1802 13.8633 12.1333C14.0117 12.0864 14.1641 12.0278 14.3203 11.9575C14.4766 11.8872 14.6172 11.8052 14.7422 11.7114C14.8672 11.6177 14.9531 11.5356 15 11.4653V11.4536H16.5ZM12 13.7036C12 14.0083 11.957 14.2817 11.8711 14.5239C11.7852 14.7661 11.6641 14.9927 11.5078 15.2036C11.3516 15.4146 11.1797 15.6138 10.9922 15.8013C10.8047 15.9888 10.6055 16.1685 10.3945 16.3403C10.1836 16.5122 9.98438 16.6919 9.79688 16.8794C9.60938 17.0669 9.42578 17.2583 9.24609 17.4536H12V18.9536H7.5V18.5317C7.5 18.3833 7.49609 18.2349 7.48828 18.0864C7.48047 17.938 7.49609 17.7896 7.53516 17.6411C7.57422 17.4927 7.61328 17.3521 7.65234 17.2192C7.73828 17.0083 7.86719 16.8013 8.03906 16.5981C8.21094 16.395 8.40625 16.188 8.625 15.9771C8.84375 15.7661 9.05859 15.5669 9.26953 15.3794C9.48047 15.1919 9.67969 15.0005 9.86719 14.8052C10.0547 14.6099 10.207 14.4263 10.3242 14.2544C10.4414 14.0825 10.5 13.8989 10.5 13.7036C10.5 13.4927 10.4258 13.3169 10.2773 13.1763C10.1289 13.0356 9.95312 12.9614 9.75 12.9536C9.57031 12.9536 9.41406 13.0083 9.28125 13.1177C9.14844 13.2271 9.05859 13.3716 9.01172 13.5513L7.54688 13.2466C7.59375 12.9888 7.68359 12.7505 7.81641 12.5317C7.94922 12.313 8.12109 12.1255 8.33203 11.9692C8.54297 11.813 8.76562 11.688 9 11.5942C9.23438 11.5005 9.48438 11.4536 9.75 11.4536C10.0625 11.4536 10.3555 11.5122 10.6289 11.6294C10.9023 11.7466 11.1406 11.9067 11.3438 12.1099C11.5469 12.313 11.707 12.5513 11.8242 12.8247C11.9414 13.0981 12 13.3911 12 13.7036Z" fill="#EFFBFF"/>
</svg>
