<svg width="24" height="25" viewBox="0 0 24 25" fill="none" xmlns="http://www.w3.org/2000/svg">
<path d="M18.8323 15.1685C19.1761 15.1685 19.5042 15.231 19.8167 15.356C20.1292 15.481 20.4104 15.6685 20.6604 15.9185L23.2386 18.4966C23.4808 18.7388 23.6644 19.0161 23.7894 19.3286C23.9144 19.6411 23.9808 19.9731 23.9886 20.3247C23.9886 20.6685 23.9261 20.9966 23.8011 21.3091C23.6761 21.6216 23.4886 21.9028 23.2386 22.1528L23.0745 22.3169C22.6526 22.7388 22.2659 23.1138 21.9144 23.4419C21.5628 23.77 21.1956 24.0435 20.8128 24.2622C20.43 24.481 20.0042 24.6528 19.5354 24.7778C19.0667 24.9028 18.5081 24.9614 17.8597 24.9536C16.8831 24.9536 15.8792 24.8013 14.8479 24.4966C13.8167 24.1919 12.7933 23.77 11.7776 23.231C10.762 22.6919 9.76201 22.0513 8.77764 21.3091C7.79326 20.5669 6.86748 19.7583 6.00029 18.8833C5.13311 18.0083 4.32842 17.0786 3.58623 16.0942C2.84404 15.1099 2.21123 14.1099 1.68779 13.0942C1.16436 12.0786 0.750293 11.0591 0.445605 10.0356C0.140918 9.01221 -0.00751953 8.02783 0.000292969 7.08252C0.000292969 6.43408 0.0549805 5.87939 0.164355 5.41846C0.27373 4.95752 0.441699 4.53564 0.668262 4.15283C0.894824 3.77002 1.16826 3.40674 1.48857 3.06299C1.80889 2.71924 2.18389 2.33252 2.61357 1.90283L2.80107 1.71533C3.04326 1.47314 3.32061 1.28564 3.63311 1.15283C3.94561 1.02002 4.27764 0.953613 4.6292 0.953613C4.97295 0.953613 5.30107 1.02002 5.61357 1.15283C5.92607 1.28564 6.20732 1.47314 6.45732 1.71533L9.03545 4.29346C9.27764 4.53564 9.46123 4.81299 9.58623 5.12549C9.71123 5.43799 9.77764 5.77002 9.78545 6.12158C9.78545 6.46533 9.72686 6.77002 9.60967 7.03564C9.49248 7.30127 9.34795 7.54736 9.17607 7.77393C9.0042 8.00049 8.8167 8.19971 8.61357 8.37158C8.41045 8.54346 8.21904 8.71924 8.03936 8.89893C7.85967 9.07861 7.71514 9.25049 7.60576 9.41455C7.49639 9.57861 7.43779 9.77002 7.42998 9.98877C7.42998 10.2856 7.53545 10.5396 7.74639 10.7505L14.2034 17.2075C14.4144 17.4185 14.6683 17.5239 14.9651 17.5239C15.1683 17.5239 15.3558 17.4653 15.5276 17.3481C15.6995 17.231 15.8753 17.0864 16.055 16.9146C16.2347 16.7427 16.4104 16.5552 16.5823 16.3521C16.7542 16.1489 16.9534 15.9575 17.18 15.7778C17.4065 15.5981 17.6487 15.4536 17.9065 15.3442C18.1644 15.2349 18.4729 15.1763 18.8323 15.1685ZM17.8597 23.4536C18.4222 23.4536 18.8909 23.4028 19.2659 23.3013C19.6409 23.1997 19.9847 23.0474 20.2972 22.8442C20.6097 22.6411 20.9065 22.3911 21.1878 22.0942C21.469 21.7974 21.8011 21.4614 22.1839 21.0864C22.3948 20.8755 22.5003 20.6216 22.5003 20.3247C22.5003 20.1841 22.4456 20.02 22.3362 19.8325C22.2269 19.645 22.0784 19.4419 21.8909 19.2231C21.7034 19.0044 21.5042 18.7896 21.2933 18.5786C21.0823 18.3677 20.8636 18.1567 20.637 17.9458C20.4104 17.7349 20.2112 17.5513 20.0394 17.395C19.8675 17.2388 19.7229 17.1021 19.6058 16.9849C19.3948 16.7739 19.137 16.6685 18.8323 16.6685C18.6292 16.6685 18.4417 16.7271 18.2698 16.8442C18.0979 16.9614 17.9261 17.106 17.7542 17.2778C17.5823 17.4497 17.4065 17.6372 17.2269 17.8403C17.0472 18.0435 16.844 18.2349 16.6175 18.4146C16.3909 18.5942 16.1487 18.7388 15.8909 18.8481C15.6331 18.9575 15.3245 19.0161 14.9651 19.0239C14.6214 19.0239 14.2933 18.9614 13.9808 18.8364C13.6683 18.7114 13.387 18.5239 13.137 18.2739L6.67998 11.8169C6.43779 11.5747 6.2542 11.2974 6.1292 10.9849C6.0042 10.6724 5.93779 10.3403 5.92998 9.98877C5.92998 9.64502 5.98857 9.34033 6.10576 9.07471C6.22295 8.80908 6.36748 8.56299 6.53936 8.33643C6.71123 8.10986 6.89873 7.91064 7.10186 7.73877C7.30498 7.56689 7.49639 7.38721 7.67607 7.19971C7.85576 7.01221 8.00029 6.84033 8.10967 6.68408C8.21904 6.52783 8.27764 6.34033 8.28545 6.12158C8.28545 5.81689 8.17998 5.55908 7.96904 5.34814C7.86748 5.24658 7.73467 5.10596 7.57061 4.92627C7.40654 4.74658 7.22295 4.54736 7.01982 4.32861C6.8167 4.10986 6.60576 3.89111 6.38701 3.67236C6.16826 3.45361 5.94951 3.25049 5.73076 3.06299C5.51201 2.87549 5.31279 2.73096 5.13311 2.62939C4.95342 2.52783 4.78545 2.46924 4.6292 2.45361C4.33232 2.45361 4.07842 2.55908 3.86748 2.77002L2.87139 3.76611C2.58232 4.05518 2.33232 4.35205 2.12139 4.65674C1.91045 4.96143 1.7542 5.30127 1.65264 5.67627C1.55107 6.05127 1.49639 6.52002 1.48857 7.08252C1.48857 7.95752 1.6292 8.85986 1.91045 9.78955C2.1917 10.7192 2.58623 11.6489 3.09404 12.5786C3.60186 13.5083 4.19951 14.4224 4.88701 15.3208C5.57451 16.2192 6.32451 17.0747 7.13701 17.8872C7.94951 18.6997 8.80498 19.4419 9.70342 20.1138C10.6019 20.7856 11.5159 21.3716 12.4456 21.8716C13.3753 22.3716 14.2972 22.7583 15.2112 23.0317C16.1253 23.3052 17.0081 23.4458 17.8597 23.4536Z" fill="#EFFBFF"/>
</svg>
